# xmcd CD database file
# Copyright (C) 1993-1998 Ti Kan
# 
# Track frame offsets:
#     182
#     20057
#     42522
#     62810
#     83972
#     107370
#     129952
#     151707
# 
# Disc length: 2312 seconds
# 
# Revision: 1
# Processed by: cddbd v1.4b41PL1 Copyright (c) Steve Scherf et al.
# Submitted via: DiscPlay 4.0.4
# 
DISCID=5c090608
DTITLE=Raf - Cosa rester ...
DYEAR=1900
DGENRE=
TTITLE0=Ti pretendo
TTITLE1=Santi nel viavai
TTITLE2=La battaglia del sesso
TTITLE3=E gli altri dormono
TTITLE4=Cosa rester  degli anni '80
TTITLE5=Do I need your love
TTITLE6=Fai
TTITLE7=E sia cos 
EXTD=
EXTT0=
EXTT1=
EXTT2=
EXTT3=
EXTT4=
EXTT5=
EXTT6=
EXTT7=
PLAYORDER=
